<?xml version="1.0" encoding="utf-8"?>
<!-- Generator: Adobe Illustrator 18.1.1, SVG Export Plug-In . SVG Version: 6.00 Build 0)  -->
<svg version="1.1" xmlns="http://www.w3.org/2000/svg" xmlns:xlink="http://www.w3.org/1999/xlink" x="0px" y="0px"
	 viewBox="0 0 64 64" enable-background="new 0 0 64 64" xml:space="preserve">
<g id="Spend-purchasing_vector" display="none">
	<line display="inline" fill="none" stroke="#00945D" stroke-miterlimit="10" x1="5.5" y1="1" x2="5.5" y2="63"/>
	<line display="inline" fill="none" stroke="#00945D" stroke-miterlimit="10" x1="5" y1="9.5" x2="40" y2="9.5"/>
	<line display="inline" fill="none" stroke="#00945D" stroke-miterlimit="10" x1="5" y1="54.5" x2="58" y2="54.5"/>
	<line display="inline" fill="none" stroke="#00945D" stroke-miterlimit="10" x1="57.5" y1="26" x2="57.5" y2="55"/>
	<line display="inline" fill="none" stroke="#00945D" stroke-miterlimit="10" x1="5" y1="16.5" x2="40" y2="16.5"/>
	<line display="inline" fill="none" stroke="#00945D" stroke-miterlimit="10" x1="39.5" y1="10" x2="39.5" y2="27"/>
	<line display="inline" fill="none" stroke="#00945D" stroke-miterlimit="10" x1="39" y1="26.5" x2="57" y2="26.5"/>
	<line display="inline" fill="none" stroke="#00945D" stroke-miterlimit="10" x1="5" y1="47.5" x2="51" y2="47.5"/>
	<line display="inline" fill="none" stroke="#00945D" stroke-miterlimit="10" x1="50.5" y1="33" x2="50.5" y2="48"/>
	<line display="inline" fill="none" stroke="#00945D" stroke-miterlimit="10" x1="39.563" y1="9.5" x2="57.016" y2="26.577"/>
	<ellipse display="inline" fill="none" stroke="#00945D" stroke-miterlimit="10" cx="19.581" cy="31.814" rx="8.568" ry="9.554"/>
</g>
<g id="Spend-purchasing_vector_copy">
	<line fill="none" stroke="#00945D" stroke-width="2" stroke-miterlimit="10" x1="5" y1="1" x2="5" y2="63"/>
	<line fill="none" stroke="#00945D" stroke-width="2" stroke-miterlimit="10" x1="5" y1="10" x2="40" y2="10"/>
	<line fill="none" stroke="#00945D" stroke-width="2" stroke-miterlimit="10" x1="5" y1="55" x2="58" y2="55"/>
	<line fill="none" stroke="#00945D" stroke-width="2" stroke-miterlimit="10" x1="57" y1="26" x2="57" y2="55"/>
	<line fill="none" stroke="#00945D" stroke-width="2" stroke-miterlimit="10" x1="5" y1="17" x2="40" y2="17"/>
	<line fill="none" stroke="#00945D" stroke-width="2" stroke-miterlimit="10" x1="39" y1="10" x2="39" y2="27"/>
	<line fill="none" stroke="#00945D" stroke-width="2" stroke-miterlimit="10" x1="38" y1="27" x2="57" y2="27"/>
	<line fill="none" stroke="#00945D" stroke-width="2" stroke-miterlimit="10" x1="5" y1="48" x2="51" y2="48"/>
	<line fill="none" stroke="#00945D" stroke-width="2" stroke-miterlimit="10" x1="50" y1="33" x2="50" y2="48"/>
	<line fill="none" stroke="#00945D" stroke-width="2" stroke-miterlimit="10" x1="39.563" y1="9.5" x2="57.016" y2="26.577"/>
	<ellipse fill="none" stroke="#00945D" stroke-width="2" stroke-miterlimit="10" cx="19.581" cy="31.814" rx="8.568" ry="9.554"/>
</g>
</svg>
