<?xml version="1.0" encoding="utf-8"?>
<!-- Generator: Adobe Illustrator 18.1.1, SVG Export Plug-In . SVG Version: 6.00 Build 0)  -->
<svg version="1.1" id="sce-warehouse2.0" xmlns="http://www.w3.org/2000/svg" xmlns:xlink="http://www.w3.org/1999/xlink" x="0px"
	 y="0px" viewBox="0 0 64 64" enable-background="new 0 0 64 64" xml:space="preserve">
<line fill="none" stroke="#FFFFFF" stroke-width="2" stroke-miterlimit="10" x1="11" y1="31" x2="11" y2="61"/>
<line fill="none" stroke="#FFFFFF" stroke-width="2" stroke-miterlimit="10" x1="53" y1="31" x2="53" y2="61"/>
<line fill="none" stroke="#FFFFFF" stroke-width="2" stroke-miterlimit="10" x1="10" y1="61" x2="24" y2="61"/>
<line fill="none" stroke="#FFFFFF" stroke-width="2" stroke-miterlimit="10" x1="40" y1="61" x2="54" y2="61"/>
<line fill="none" stroke="#FFFFFF" stroke-width="2" stroke-miterlimit="10" x1="24" y1="39" x2="24" y2="62"/>
<line fill="none" stroke="#FFFFFF" stroke-width="2" stroke-miterlimit="10" x1="40" y1="39" x2="40" y2="62"/>
<line fill="none" stroke="#FFFFFF" stroke-width="2" stroke-miterlimit="10" x1="23" y1="40" x2="40" y2="40"/>
<line fill="none" stroke="#FFFFFF" stroke-width="2" stroke-miterlimit="10" x1="2" y1="31.458" x2="32.002" y2="2.458"/>
<line fill="#FFFFFF" stroke="#FFFFFF" stroke-width="2" stroke-miterlimit="10" x1="31.292" y1="1.75" x2="42.458" y2="12.458"/>
<line fill="#FFFFFF" stroke="#FFFFFF" stroke-width="2" stroke-miterlimit="10" x1="42" y1="4" x2="42" y2="12"/>
<line fill="none" stroke="#FFFFFF" stroke-width="2" stroke-miterlimit="10" x1="42" y1="5" x2="51" y2="5"/>
<line fill="none" stroke="#FFFFFF" stroke-width="2" stroke-miterlimit="10" x1="50" y1="5" x2="50" y2="21"/>
<line fill="none" stroke="#FFFFFF" stroke-width="2" stroke-miterlimit="10" x1="49.771" y1="20.271" x2="61.667" y2="31.375"/>
<ellipse transform="matrix(-0.4245 -0.9054 0.9054 -0.4245 49.3232 55.995)" fill="#FFFFFF" stroke="#FFFFFF" stroke-width="0.75" stroke-miterlimit="10" cx="42.457" cy="12.323" rx="1.177" ry="0.812"/>
</svg>
