<?xml version="1.0" encoding="utf-8"?>
<!-- Generator: Adobe Illustrator 18.1.1, SVG Export Plug-In . SVG Version: 6.00 Build 0)  -->
<svg version="1.1" id="spend-invoice-management-vector"
	 xmlns="http://www.w3.org/2000/svg" xmlns:xlink="http://www.w3.org/1999/xlink" x="0px" y="0px" viewBox="0 0 64 64"
	 enable-background="new 0 0 64 64" xml:space="preserve">
<path fill="none" stroke="#FFFFFF" stroke-width="2" stroke-miterlimit="10" d="M46.638,62.392L46.638,62.392
	c-8.128,0-14.779-6.65-14.779-14.778l0,0c0-8.128,6.65-14.778,14.778-14.778l0,0c8.128,0,14.778,6.65,14.778,14.778l0,0
	C61.416,55.741,54.766,62.392,46.638,62.392z"/>
<line fill="none" stroke="#FFFFFF" stroke-width="2" stroke-miterlimit="10" x1="46" y1="38" x2="46" y2="57"/>
<line fill="none" stroke="#FFFFFF" stroke-width="2" stroke-miterlimit="10" x1="37" y1="48" x2="56" y2="48"/>
<line fill="none" stroke="#FFFFFF" stroke-width="2" stroke-miterlimit="10" x1="21" y1="2" x2="21" y2="19"/>
<line fill="none" stroke="#FFFFFF" stroke-width="2" stroke-miterlimit="10" x1="20" y1="19" x2="56" y2="19"/>
<line fill="none" stroke="#FFFFFF" stroke-width="2" stroke-miterlimit="10" x1="21" y1="3" x2="43" y2="3"/>
<line fill="none" stroke="#FFFFFF" stroke-width="2" stroke-miterlimit="10" x1="42" y1="2" x2="42" y2="12"/>
<line fill="none" stroke="#FFFFFF" stroke-width="2" stroke-miterlimit="10" x1="41" y1="13" x2="53" y2="13"/>
<line fill="none" stroke="#FFFFFF" stroke-width="2" stroke-miterlimit="10" x1="52" y1="13" x2="52" y2="19"/>
<line fill="none" stroke="#FFFFFF" stroke-width="2" stroke-miterlimit="10" x1="34" y1="55" x2="9" y2="55"/>
<line fill="none" stroke="#FFFFFF" stroke-width="2" stroke-miterlimit="10" x1="2.795" y1="14.879" x2="5.003" y2="51.316"/>
<line fill="none" stroke="#FFFFFF" stroke-width="2" stroke-miterlimit="10" x1="16.834" y1="22.844" x2="12.515" y2="48.95"/>
<line fill="none" stroke="#FFFFFF" stroke-width="2" stroke-miterlimit="10" x1="57.845" y1="22.844" x2="56.819" y2="32.343"/>
<path fill="none" stroke="#FFFFFF" stroke-width="2" stroke-miterlimit="10" d="M57.845,24.185"/>
<path fill="none" stroke="#FFFFFF" stroke-width="2" stroke-miterlimit="10" d="M57.661,23.291"/>
<path fill="none" stroke="#FFFFFF" stroke-width="2" stroke-miterlimit="10" d="M57.822,25.029"/>
<line fill="none" stroke="#FFFFFF" stroke-width="2" stroke-miterlimit="10" x1="6" y1="10" x2="22" y2="10"/>
<line fill="none" stroke="#FFFFFF" stroke-width="2" stroke-miterlimit="10" x1="42" y1="2.84" x2="52.191" y2="12.812"/>
<path fill="none" stroke="#FFFFFF" stroke-width="2" stroke-miterlimit="10" d="M2.795,15.469C2.795,12.446,4.229,10,6,10"/>
<path fill="none" stroke="#FFFFFF" stroke-width="2" stroke-miterlimit="10" d="M4.969,50.743c0,2.353,2.04,4.257,4.562,4.257"/>
<path fill="none" stroke="#FFFFFF" stroke-width="2" stroke-miterlimit="10" d="M57.661,23.531c0.256,0,0.714-4.635-1.879-4.531"/>
<path fill="none" stroke="#FFFFFF" stroke-width="2" stroke-miterlimit="10" d="M16.8,23.045c0-2.236,1.725-4.045,3.856-4.045"/>
<line fill="none" stroke="#00945D" stroke-width="2" stroke-miterlimit="10" x1="63" y1="-13" x2="62" y2="-13"/>
</svg>
