<?xml version="1.0" encoding="utf-8"?>
<!-- Generator: Adobe Illustrator 18.1.1, SVG Export Plug-In . SVG Version: 6.00 Build 0)  -->
<svg version="1.1" id="sce-work-order2.0" xmlns="http://www.w3.org/2000/svg" xmlns:xlink="http://www.w3.org/1999/xlink" x="0px"
	 y="0px" viewBox="0 0 64 64" enable-background="new 0 0 64 64" xml:space="preserve">
<line fill="none" stroke="#FF9D6B" stroke-width="2" stroke-miterlimit="10" x1="9" y1="16" x2="9" y2="56"/>
<line fill="none" stroke="#FF9D6B" stroke-width="2" stroke-miterlimit="10" x1="13" y1="12" x2="29" y2="12"/>
<line fill="#FF9D6B" stroke="#FF9D6B" stroke-width="2" stroke-miterlimit="10" x1="22" y1="3" x2="38" y2="3"/>
<line fill="#FF9D6B" stroke="#FF9D6B" stroke-width="2" stroke-miterlimit="10" x1="55" y1="20" x2="55" y2="38"/>
<line fill="none" stroke="#FF9D6B" stroke-width="2" stroke-miterlimit="10" x1="13" y1="61" x2="32" y2="61"/>
<line fill="none" stroke="#FF9D6B" stroke-width="2" stroke-miterlimit="10" x1="25" y1="48" x2="25" y2="48"/>
<circle fill="none" stroke="#FF9D6B" stroke-width="2" stroke-miterlimit="10" cx="43.25" cy="49.688" r="12.098"/>
<line fill="none" stroke="#FF9D6B" stroke-width="2" stroke-miterlimit="10" x1="43" y1="43" x2="43" y2="55"/>
<line fill="none" stroke="#FF9D6B" stroke-width="2" stroke-miterlimit="10" x1="37" y1="49" x2="49" y2="49"/>
<line fill="none" stroke="#FF9D6B" stroke-width="2" stroke-miterlimit="10" x1="46" y1="29" x2="46" y2="35"/>
<line fill="#FF9D6B" stroke="#FF9D6B" stroke-width="2" stroke-miterlimit="10" x1="31.665" y1="11.667" x2="45.46" y2="25.54"/>
<line fill="#FF9D6B" stroke="#FF9D6B" stroke-width="2" stroke-miterlimit="10" x1="32" y1="12" x2="32" y2="24"/>
<line fill="#FF9D6B" stroke="#FF9D6B" stroke-width="2" stroke-miterlimit="10" x1="34" y1="26" x2="45" y2="26"/>
<path fill="#FF9D6B" stroke="#FF9D6B" stroke-width="2" stroke-miterlimit="10" d="M31.999,23.333c0,1.474,1.193,2.667,2.668,2.667"
	/>
<ellipse fill="#FF9D6B" stroke="#FF9D6B" stroke-miterlimit="10" cx="45.602" cy="25.936" rx="0.831" ry="0.773"/>
<ellipse fill="#FF9D6B" stroke="#FF9D6B" stroke-miterlimit="10" cx="31.602" cy="11.936" rx="0.831" ry="0.773"/>
<line fill="#FF9D6B" stroke="#FF9D6B" stroke-width="2" stroke-miterlimit="10" x1="40.665" y1="2.667" x2="54.46" y2="16.54"/>
<line fill="#FF9D6B" stroke="#FF9D6B" stroke-width="2" stroke-miterlimit="10" x1="41" y1="3" x2="41" y2="15"/>
<line fill="#FF9D6B" stroke="#FF9D6B" stroke-width="2" stroke-miterlimit="10" x1="43" y1="17" x2="54" y2="17"/>
<path fill="#FF9D6B" stroke="#FF9D6B" stroke-width="2" stroke-miterlimit="10" d="M40.999,14.333c0,1.474,1.193,2.667,2.668,2.667"
	/>
<ellipse fill="#FF9D6B" stroke="#FF9D6B" stroke-miterlimit="10" cx="54.602" cy="16.936" rx="0.831" ry="0.773"/>
<ellipse fill="#FF9D6B" stroke="#FF9D6B" stroke-miterlimit="10" cx="40.602" cy="2.936" rx="0.831" ry="0.773"/>
<path fill="none" stroke="#FF9D6B" stroke-width="2" stroke-miterlimit="10" d="M8.983,16.359c0.225-2.669,2.562-4.648,5.225-4.423"
	/>
<line fill="none" stroke="#FF9D6B" stroke-width="2" stroke-miterlimit="10" x1="18" y1="11" x2="18" y2="7"/>
<path fill="none" stroke="#FF9D6B" stroke-width="2" stroke-miterlimit="10" d="M18,7.5c0-2.523,1.92-4.564,4.292-4.564"/>
<path fill="none" stroke="#FF9D6B" stroke-width="2" stroke-miterlimit="10" d="M9,55.5c0,3.04,2.152,5.5,4.812,5.5"/>
</svg>
