<?xml version="1.0" encoding="utf-8"?>
<!-- Generator: Adobe Illustrator 18.1.1, SVG Export Plug-In . SVG Version: 6.00 Build 0)  -->
<svg version="1.1" id="spend-t-and-e_2.0" xmlns="http://www.w3.org/2000/svg" xmlns:xlink="http://www.w3.org/1999/xlink" x="0px"
	 y="0px" viewBox="0 0 64 64" enable-background="new 0 0 64 64" xml:space="preserve">
<line fill="#FFFFFF" stroke="#FFFFFF" stroke-width="2" stroke-miterlimit="10" x1="7" y1="13" x2="7" y2="59"/>
<line fill="#FFFFFF" stroke="#FFFFFF" stroke-width="2" stroke-miterlimit="10" x1="47" y1="33" x2="47" y2="60"/>
<line fill="#FFFFFF" stroke="#FFFFFF" stroke-width="2" stroke-miterlimit="10" x1="7" y1="18.833" x2="44.167" y2="28.667"/>
<line fill="#FFFFFF" stroke="#FFFFFF" stroke-width="2" stroke-miterlimit="10" x1="7.438" y1="25.925" x2="47" y2="36.625"/>
<line fill="#FFFFFF" stroke="#FFFFFF" stroke-width="2" stroke-miterlimit="10" x1="7.438" y1="33" x2="47" y2="43.875"/>
<line fill="#FFFFFF" stroke="#FFFFFF" stroke-width="2" stroke-miterlimit="10" x1="7.688" y1="52.455" x2="42.562" y2="61.75"/>
<line fill="#FFFFFF" stroke="#FFFFFF" stroke-width="2" stroke-miterlimit="10" x1="20.066" y1="6.5" x2="43.048" y2="12.842"/>
<line fill="#FFFFFF" stroke="#FFFFFF" stroke-width="2" stroke-miterlimit="10" x1="32.792" y1="47.625" x2="40.667" y2="49.667"/>
<line fill="#FFFFFF" stroke="#FFFFFF" stroke-width="2" stroke-miterlimit="10" x1="32.375" y1="54.917" x2="40.667" y2="57.103"/>
<line fill="#FFFFFF" stroke="#FFFFFF" stroke-width="2" stroke-miterlimit="10" x1="31.042" y1="48.833" x2="31.125" y2="53.5"/>
<line fill="#FFFFFF" stroke="#FFFFFF" stroke-width="2" stroke-miterlimit="10" x1="42.167" y1="51.458" x2="42.208" y2="56.01"/>
<path fill="#FFFFFF" stroke="#FFFFFF" stroke-width="2" stroke-miterlimit="10" d="M42.129,52.071
	c0.086-1.287-0.831-2.394-2.049-2.475"/>
<path fill="#FFFFFF" stroke="#FFFFFF" stroke-width="2" stroke-miterlimit="10" d="M42.139,55.469"/>
<path fill="#FFFFFF" stroke="#FFFFFF" stroke-width="2" stroke-miterlimit="10" d="M42.208,55.708
	c-0.123,0.697-0.839,1.394-1.875,1.394"/>
<path fill="#FFFFFF" stroke="#FFFFFF" stroke-width="2" stroke-miterlimit="10" d="M31.082,53.17
	c-0.086,0.917,0.642,1.734,1.628,1.827"/>
<path fill="#FFFFFF" stroke="#FFFFFF" stroke-width="2" stroke-miterlimit="10" d="M31.042,49.208c0-0.84,0.893-1.52,1.996-1.52"/>
<path fill="#FFFFFF" stroke="#FFFFFF" stroke-width="2" stroke-miterlimit="10" d="M47.063,33.411
	c-0.071-2.759-1.736-4.951-3.723-4.9"/>
<path fill="#FFFFFF" stroke="#FFFFFF" stroke-width="2" stroke-miterlimit="10" d="M42.346,61.692
	c2.162,0.579,4.279-0.325,4.733-2.02"/>
<path fill="#FFFFFF" stroke="#FFFFFF" stroke-miterlimit="10" d="M28.903,3.566l-8.124,4.272c-0.385,0.203-0.866,0.053-1.068-0.332
	l-0.107-0.204c-0.203-0.385-0.053-0.866,0.332-1.068l8.124-4.272c0.385-0.203,0.866-0.053,1.068,0.332l0.107,0.204
	C29.438,2.883,29.288,3.364,28.903,3.566z"/>
<path fill="#FFFFFF" stroke="#FFFFFF" stroke-miterlimit="10" d="M27.674,15.657l-7.866-8.058c-0.337-0.346-0.331-0.904,0.015-1.241
	l0.041-0.04c0.346-0.337,0.904-0.331,1.241,0.015l7.866,8.058c0.337,0.346,0.331,0.904-0.015,1.241l-0.041,0.04
	C28.57,16.009,28.011,16.002,27.674,15.657z"/>
<line fill="#FFFFFF" stroke="#FFFFFF" stroke-width="2" stroke-miterlimit="10" x1="57.459" y1="21.456" x2="34.572" y2="14.778"/>
<path fill="#FFFFFF" stroke="#FFFFFF" stroke-miterlimit="10" d="M48.58,24.26l8.186-4.153c0.388-0.197,0.867-0.04,1.063,0.348
	l0.104,0.205c0.197,0.388,0.04,0.867-0.348,1.063L49.4,25.876c-0.388,0.197-0.867,0.04-1.063-0.348l-0.104-0.205
	C48.035,24.935,48.192,24.457,48.58,24.26z"/>
<path fill="#FFFFFF" stroke="#FFFFFF" stroke-miterlimit="10" d="M49.986,12.189l7.747,8.172c0.332,0.35,0.317,0.909-0.033,1.241
	l-0.041,0.039c-0.35,0.332-0.909,0.317-1.241-0.033l-7.747-8.172c-0.332-0.35-0.317-0.909,0.033-1.241l0.041-0.039
	C49.095,11.824,49.654,11.839,49.986,12.189z"/>
</svg>
