<?xml version="1.0" encoding="utf-8"?>
<!-- Generator: Adobe Illustrator 18.1.1, SVG Export Plug-In . SVG Version: 6.00 Build 0)  -->
<svg version="1.1" id="Layer_1" xmlns="http://www.w3.org/2000/svg" xmlns:xlink="http://www.w3.org/1999/xlink" x="0px" y="0px"
	 viewBox="0 0 64 64" enable-background="new 0 0 64 64" xml:space="preserve">
<g id="spend-procure-to-pay_vector" display="none">
	<line display="inline" fill="none" stroke="#00945D" stroke-miterlimit="10" x1="15.5" y1="2" x2="15.5" y2="51"/>
	<line display="inline" fill="none" stroke="#00945D" stroke-miterlimit="10" x1="8" y1="25.5" x2="17" y2="25.5"/>
	<line display="inline" fill="none" stroke="#00945D" stroke-miterlimit="10" x1="8" y1="31.5" x2="25" y2="31.5"/>
	<path display="inline" fill="none" stroke="#00945D" stroke-miterlimit="10" d="M31.159,2.134
		c20.776,2.486,12.189,25.728-9.347,23.441"/>
	<line display="inline" fill="none" stroke="#00945D" stroke-miterlimit="10" x1="32.11" y1="2.194" x2="14.958" y2="2.105"/>
	<line display="inline" fill="none" stroke="#00945D" stroke-miterlimit="10" x1="27.5" y1="14" x2="27.5" y2="64"/>
	<line display="inline" fill="none" stroke="#00945D" stroke-miterlimit="10" x1="20" y1="37.5" x2="29" y2="37.5"/>
	<line display="inline" fill="none" stroke="#00945D" stroke-miterlimit="10" x1="20" y1="43.5" x2="37" y2="43.5"/>
	<path display="inline" fill="none" stroke="#00945D" stroke-miterlimit="10" d="M43.316,14.291
		c20.776,2.486,12.189,25.728-9.347,23.441"/>
	<line display="inline" fill="none" stroke="#00945D" stroke-miterlimit="10" x1="44.267" y1="14.351" x2="27" y2="14.262"/>
</g>
<g id="spend-procure-to-pay_vector_copy">
	<line fill="none" stroke="#FFFFFF" stroke-width="2" stroke-miterlimit="10" x1="15" y1="2" x2="15" y2="51"/>
	<line fill="none" stroke="#FFFFFF" stroke-width="2" stroke-miterlimit="10" x1="8" y1="26" x2="17" y2="26"/>
	<line fill="none" stroke="#FFFFFF" stroke-width="2" stroke-miterlimit="10" x1="8" y1="32" x2="25" y2="32"/>
	<path fill="none" stroke="#FFFFFF" stroke-width="2" stroke-miterlimit="10" d="M31.159,2.134
		c20.776,2.486,12.189,25.728-9.347,23.441"/>
	<line fill="none" stroke="#FFFFFF" stroke-width="2" stroke-miterlimit="10" x1="32.11" y1="2.194" x2="14" y2="2.105"/>
	<line fill="none" stroke="#FFFFFF" stroke-width="2" stroke-miterlimit="10" x1="27" y1="14" x2="27" y2="64"/>
	<line fill="none" stroke="#FFFFFF" stroke-width="2" stroke-miterlimit="10" x1="20" y1="38" x2="29" y2="38"/>
	<line fill="none" stroke="#FFFFFF" stroke-width="2" stroke-miterlimit="10" x1="20" y1="44" x2="37" y2="44"/>
	<path fill="none" stroke="#FFFFFF" stroke-width="2" stroke-miterlimit="10" d="M43.316,14.291
		c20.776,2.486,12.189,25.728-9.347,23.441"/>
	<line fill="none" stroke="#FFFFFF" stroke-width="2" stroke-miterlimit="10" x1="44.267" y1="14.351" x2="26" y2="14.262"/>
</g>
</svg>
