<?xml version="1.0" encoding="utf-8"?>
<!-- Generator: Adobe Illustrator 18.1.1, SVG Export Plug-In . SVG Version: 6.00 Build 0)  -->
<svg version="1.1" id="sce-asset-management2.0" xmlns="http://www.w3.org/2000/svg" xmlns:xlink="http://www.w3.org/1999/xlink"
	 x="0px" y="0px" viewBox="0 0 64 64" enable-background="new 0 0 64 64" xml:space="preserve">
<line fill="none" stroke="#FFFFFF" stroke-width="2" stroke-miterlimit="10" x1="5" y1="23" x2="5" y2="54"/>
<line fill="none" stroke="#FFFFFF" stroke-width="2" stroke-miterlimit="10" x1="9" y1="60" x2="42" y2="60"/>
<line fill="none" stroke="#FFFFFF" stroke-width="2" stroke-miterlimit="10" x1="47" y1="43" x2="47" y2="57"/>
<line fill="none" stroke="#FFFFFF" stroke-width="2" stroke-miterlimit="10" x1="9" y1="53" x2="42" y2="53"/>
<line fill="none" stroke="#FFFFFF" stroke-width="2" stroke-miterlimit="10" x1="9" y1="46" x2="29" y2="46"/>
<line fill="none" stroke="#FFFFFF" stroke-width="2" stroke-miterlimit="10" x1="9" y1="39" x2="29" y2="39"/>
<line fill="none" stroke="#FFFFFF" stroke-width="2" stroke-miterlimit="10" x1="9" y1="32" x2="29" y2="32"/>
<line fill="none" stroke="#FFFFFF" stroke-width="2" stroke-miterlimit="10" x1="24" y1="4" x2="42" y2="4"/>
<line fill="none" stroke="#FFFFFF" stroke-width="2" stroke-miterlimit="10" x1="5" y1="20" x2="16" y2="20"/>
<line fill="none" stroke="#FFFFFF" stroke-width="2" stroke-miterlimit="10" x1="4.717" y1="19.499" x2="19.424" y2="4.866"/>
<line fill="none" stroke="#FFFFFF" stroke-width="2" stroke-miterlimit="10" x1="20" y1="5" x2="20" y2="18"/>
<line fill="none" stroke="#FFFFFF" stroke-width="2" stroke-miterlimit="10" x1="34.645" y1="31.485" x2="49.205" y2="10.528"/>
<path fill="none" stroke="#FFFFFF" stroke-width="2" stroke-miterlimit="10" d="M46.925,39.868
	c5.559-8.137,13.711-20.07,15.222-22.281"/>
<line fill="none" stroke="#FFFFFF" stroke-width="2" stroke-miterlimit="10" x1="34.969" y1="31.02" x2="33.64" y2="44.305"/>
<line fill="none" stroke="#FFFFFF" stroke-width="2" stroke-miterlimit="10" x1="47.33" y1="39.277" x2="33.64" y2="44.305"/>
<ellipse transform="matrix(-0.882 -0.4713 0.4713 -0.882 34.0999 19.5461)" fill="#FFFFFF" stroke="#FFFFFF" stroke-width="0.75" stroke-miterlimit="10" cx="19.497" cy="5.503" rx="1.201" ry="1.495"/>
<ellipse transform="matrix(-0.882 -0.4713 0.4713 -0.882 42.3711 99.2724)" fill="#FFFFFF" stroke="#FFFFFF" stroke-width="0.75" stroke-miterlimit="10" cx="33.616" cy="44.331" rx="1.201" ry="1.495"/>
<ellipse transform="matrix(-0.882 -0.4713 0.4713 -0.882 0.8726 39.4628)" fill="#FFFFFF" stroke="#FFFFFF" stroke-width="0.75" stroke-miterlimit="10" cx="5.377" cy="19.622" rx="1.201" ry="1.495"/>
<path fill="none" stroke="#FFFFFF" stroke-width="2" stroke-miterlimit="10" d="M59.616,21.293
	c-1.878-4.315-4.315-7.954-11.121-9.11"/>
<path fill="none" stroke="#FFFFFF" stroke-width="2" stroke-miterlimit="10" d="M62.417,16.264c-2.097-3.934-4.617-7.15-10.729-7.44
	"/>
<path fill="none" stroke="#FFFFFF" stroke-width="2" stroke-miterlimit="10" d="M39.239,34.807c0-1.836-1.627-3.322-3.638-3.322"/>
<path fill="none" stroke="#FFFFFF" stroke-width="2" stroke-miterlimit="10" d="M42.17,37.393c0-1.788-1.82-3.236-4.069-3.236"/>
<path fill="none" stroke="#FFFFFF" stroke-width="2" stroke-miterlimit="10" d="M45.651,39.277c0-1.61-2.085-2.914-4.661-2.914"/>
<path fill="none" stroke="#FFFFFF" stroke-width="2" stroke-miterlimit="10" d="M48.995,10.83c0,0.63,1.355-2.006,3.028-2.006"/>
<path fill="none" stroke="#FFFFFF" stroke-width="2" stroke-miterlimit="10" d="M62.151,15.765c0.196,0.243,0.07,1.633-0.109,2.19"
	/>
<path fill="none" stroke="#FFFFFF" stroke-width="2" stroke-miterlimit="10" d="M5,53.312C5,57.009,6.985,60,9.438,60"/>
<path fill="none" stroke="#FFFFFF" stroke-width="2" stroke-miterlimit="10" d="M47,56.656C47,58.504,44.54,60,41.5,60"/>
<path fill="none" stroke="#FFFFFF" stroke-width="2" stroke-miterlimit="10" d="M20,17.587C20,18.921,18.211,20,16,20"/>
<path fill="none" stroke="#FFFFFF" stroke-width="2" stroke-miterlimit="10" d="M45.251,9.736C45.69,6.951,44.068,4.385,41.625,4"/>
</svg>
